<svg width="16" height="12" viewBox="0 0 16 12" fill="#081331" xmlns="http://www.w3.org/2000/svg">
<path d="M0 1.5C0 1.10218 0.158063 0.720644 0.439416 0.43934C0.72077 0.158035 1.10237 0 1.50026 0H13.5023C13.9002 0 14.2818 0.158035 14.5632 0.43934C14.8445 0.720644 15.0026 1.10218 15.0026 1.5V10.5C15.0026 10.8978 14.8445 11.2794 14.5632 11.5607C14.2818 11.842 13.9002 12 13.5023 12H1.50026C1.10237 12 0.72077 11.842 0.439416 11.5607C0.158063 11.2794 0 10.8978 0 10.5V1.5ZM2.63971 1.5L7.50131 5.75325L12.3629 1.5H2.63971ZM13.5023 2.49675L7.99564 7.31475C7.85885 7.43458 7.68317 7.50064 7.50131 7.50064C7.31944 7.50064 7.14376 7.43458 7.00697 7.31475L1.50026 2.49675V10.5H13.5023V2.49675Z"/>
</svg>
