<svg width="19" height="18" viewBox="0 0 19 18" fill="#081331" xmlns="http://www.w3.org/2000/svg">
<path d="M9.00553 4.38503C6.45115 4.38503 4.39078 6.4455 4.39078 9C4.39078 11.5545 6.45115 13.615 9.00553 13.615C11.5599 13.615 13.6203 11.5545 13.6203 9C13.6203 6.4455 11.5599 4.38503 9.00553 4.38503ZM9.00553 12.0003C7.35482 12.0003 6.00534 10.6548 6.00534 9C6.00534 7.3452 7.35081 5.99967 9.00553 5.99967C10.6602 5.99967 12.0057 7.3452 12.0057 9C12.0057 10.6548 10.6562 12.0003 9.00553 12.0003ZM14.8854 4.19625C14.8854 4.79471 14.4035 5.27268 13.809 5.27268C13.2106 5.27268 12.7327 4.79069 12.7327 4.19625C12.7327 3.60181 13.2146 3.11983 13.809 3.11983C14.4035 3.11983 14.8854 3.60181 14.8854 4.19625ZM17.9418 5.28874C17.8736 3.84681 17.5442 2.56956 16.4879 1.51724C15.4356 0.464911 14.1585 0.135557 12.7166 0.0632601C11.2306 -0.0210867 6.77647 -0.0210867 5.29044 0.0632601C3.8526 0.131541 2.57541 0.460895 1.51912 1.51322C0.462825 2.56555 0.137504 3.8428 0.0652101 5.28473C-0.0191325 6.77084 -0.0191325 11.2251 0.0652101 12.7113C0.133487 14.1532 0.462825 15.4304 1.51912 16.4828C2.57541 17.5351 3.84858 17.8644 5.29044 17.9367C6.77647 18.0211 11.2306 18.0211 12.7166 17.9367C14.1585 17.8685 15.4356 17.5391 16.4879 16.4828C17.5402 15.4304 17.8695 14.1532 17.9418 12.7113C18.0262 11.2251 18.0262 6.77485 17.9418 5.28874ZM16.022 14.3058C15.7088 15.093 15.1023 15.6995 14.3111 16.0168C13.1263 16.4868 10.3148 16.3783 9.00553 16.3783C7.69621 16.3783 4.88077 16.4828 3.69997 16.0168C2.91278 15.7036 2.30631 15.0971 1.98902 14.3058C1.51912 13.1209 1.62756 10.3094 1.62756 9C1.62756 7.69062 1.52313 4.87504 1.98902 3.69419C2.3023 2.90695 2.90876 2.30046 3.69997 1.98315C4.88479 1.51322 7.69621 1.62167 9.00553 1.62167C10.3148 1.62167 13.1303 1.51724 14.3111 1.98315C15.0983 2.29644 15.7047 2.90293 16.022 3.69419C16.4919 4.87906 16.3835 7.69062 16.3835 9C16.3835 10.3094 16.4919 13.125 16.022 14.3058Z"/>
</svg>
