<svg width="13" height="12" viewBox="0 0 13 12" fill="#081331" xmlns="http://www.w3.org/2000/svg">
<path d="M11.5661 0.576804L9.12821 0.0143156C8.86332 -0.0466206 8.59141 0.0916578 8.48358 0.34009L7.35841 2.96503C7.25995 3.19472 7.32559 3.46424 7.52015 3.62127L8.94068 4.78375C8.0968 6.58136 6.62236 8.07664 4.78692 8.93678L3.62424 7.5165C3.46484 7.32197 3.19761 7.25635 2.96789 7.35479L0.342484 8.47976C0.0916645 8.58992 -0.046638 8.86178 0.0143088 9.12662L0.576895 11.5641C0.635498 11.8172 0.860533 12 1.12542 12C7.12868 12 12.0021 7.13682 12.0021 1.12523C12.0021 0.862735 11.8216 0.635396 11.5661 0.576804Z"/>
</svg>
