<svg width="19" height="18" viewBox="0 0 19 18" fill="#081331" xmlns="http://www.w3.org/2000/svg">
<path d="M15.3067 2.61562C13.6229 0.928125 11.3806 0 8.99755 0C4.07883 0 0.0763526 4.00179 0.0763526 8.91964C0.0763526 10.4906 0.486245 12.0254 1.26585 13.3795L0 18L4.72984 16.7585C6.03185 17.4696 7.49863 17.8433 8.99353 17.8433H8.99755C13.9122 17.8433 18.0031 13.8415 18.0031 8.92366C18.0031 6.54107 16.9905 4.30312 15.3067 2.61562ZM8.99755 16.3406C7.66339 16.3406 6.35736 15.983 5.2201 15.308L4.95086 15.1473L2.14591 15.8826L2.89336 13.1464L2.71654 12.8652C1.97311 11.6839 1.58331 10.3219 1.58331 8.91964C1.58331 4.83348 4.91068 1.5067 9.00157 1.5067C10.9827 1.5067 12.8433 2.27812 14.2418 3.68036C15.6402 5.08259 16.5002 6.94286 16.4962 8.92366C16.4962 13.0138 13.0844 16.3406 8.99755 16.3406ZM13.0643 10.7879C12.8433 10.6754 11.7462 10.1371 11.5413 10.0647C11.3363 9.98839 11.1877 9.95223 11.039 10.1772C10.8903 10.4022 10.4643 10.9004 10.3317 11.0531C10.2031 11.2018 10.0705 11.2219 9.84948 11.1094C8.53943 10.4545 7.67946 9.94018 6.81547 8.45759C6.58641 8.06384 7.04453 8.09196 7.4705 7.24018C7.54283 7.09152 7.50666 6.96295 7.4504 6.85045C7.39414 6.73795 6.94808 5.64107 6.76323 5.19509C6.5824 4.76116 6.39754 4.82143 6.26091 4.81339C6.13232 4.80536 5.98363 4.80536 5.83494 4.80536C5.68626 4.80536 5.44514 4.86161 5.2402 5.08259C5.03525 5.30759 4.4606 5.84598 4.4606 6.94286C4.4606 8.03973 5.26029 9.10045 5.36879 9.24911C5.48131 9.39777 6.94005 11.6478 9.17838 12.6161C10.5929 13.2268 11.1475 13.279 11.8547 13.1746C12.2847 13.1103 13.1728 12.6362 13.3577 12.1138C13.5425 11.5915 13.5425 11.1455 13.4863 11.0531C13.434 10.9527 13.2853 10.8964 13.0643 10.7879Z"/>
</svg>
