<svg width="256" height="256" viewBox="0 0 256 256" fill="none" xmlns="http://www.w3.org/2000/svg">
<rect width="256" height="256" rx="128" fill="#EC0C55"/>
<path d="M152.885 11.2566L152.5 12.7954H154.039L153.654 11.2566H152.885Z" fill="white"/>
<path d="M89.0245 21.6435C88.8141 23.008 89.1988 23.3927 90.5633 23.1823L89.0245 21.6435Z" fill="white"/>
<path d="M106.177 23.2142C105.141 23.9405 106.139 25.7482 107.263 24.9954C108.311 24.2933 107.282 22.439 106.177 23.2142Z" fill="white"/>
<path d="M27.0879 26.6446L28.6267 27.0293C28.8917 25.3104 27.6384 24.9884 27.0879 26.6446Z" fill="white"/>
<path d="M29.0113 25.4905V26.6446H29.396L29.0113 25.4905Z" fill="white"/>
<path d="M61.7109 32.7998V33.1845H62.865L61.7109 32.7998Z" fill="white"/>
<path d="M62.8652 32.7998V33.1845H64.0193L62.8652 32.7998Z" fill="white"/>
<path d="M64.0195 32.7998V33.1845H65.1736L64.0195 32.7998Z" fill="white"/>
<path d="M66.7119 81.6567C63.0454 85.9584 59.0553 91.9578 57.4791 97.4293C61.2927 98.2326 65.0697 87.9907 67.1551 85.119C70.5359 80.4641 75.5554 79.8093 79.7902 76.1551C83.0705 73.3244 84.1816 69.4494 86.8664 66.3044C88.8153 64.022 92.1787 62.6029 94.795 61.2249C140.096 37.365 201.064 71.5671 203.28 123.204H205.589C204.485 97.494 187.425 71.0309 164.041 60.1135V59.7288C166.038 58.7786 167.773 57.4394 168.902 55.4971C169.815 53.9275 170.181 52.2948 170.194 50.496C170.207 48.7679 170.031 47.0729 169.272 45.4949C163.595 33.6896 145.92 43.1494 151.731 54.7277C146.089 53.4343 140.597 51.8824 134.804 51.3308C117.817 49.7131 102.271 54.5522 87.4857 62.4217C93.8537 35.6746 53.676 21.5877 41.8946 46.649C40.4489 49.7243 39.4817 53.2423 39.404 56.6512C39.3155 60.5016 40.2819 64.374 41.9984 67.8075C43.9489 71.7083 46.9234 75.2237 50.5545 77.6712C55.4856 80.9954 60.9399 81.6567 66.7119 81.6567Z" fill="white"/>
<path d="M147.745 39.3655C146.903 39.9898 148.038 41.0247 148.789 40.468C149.632 39.8436 148.497 38.8088 147.745 39.3655Z" fill="white"/>
<path d="M159.039 39.7244V40.1091H161.732L159.039 39.7244Z" fill="white"/>
<path d="M118.878 44.3723C117.927 45.061 118.999 46.5386 119.953 45.848C120.903 45.1594 119.831 43.6818 118.878 44.3723Z" fill="white"/>
<path d="M144.284 45.1417C143.47 45.7815 144.535 47.0545 145.328 46.3674C146.128 45.6738 145.088 44.5101 144.284 45.1417Z" fill="white"/>
<path d="M170.197 48.5725V49.7266H170.581L170.197 48.5725Z" fill="white"/>
<path d="M150.192 49.3419V50.8807H150.577L150.192 49.3419Z" fill="white"/>
<path d="M170.195 49.7266V50.8807H170.58L170.195 49.7266Z" fill="white"/>
<path d="M122.492 50.8807V51.2654H124.416L122.492 50.8807Z" fill="white"/>
<path d="M124.416 50.8807V51.2654H131.725L124.416 50.8807Z" fill="white"/>
<path d="M131.727 50.8807V51.2654H133.265L131.727 50.8807Z" fill="white"/>
<path d="M133.264 50.8807V51.2654H134.418L133.264 50.8807Z" fill="white"/>
<path d="M119.416 51.2654V51.6501H120.57L119.416 51.2654Z" fill="white"/>
<path d="M124.417 53.1889V53.5736H130.957L124.417 53.1889Z" fill="white"/>
<path d="M119.8 53.5736V53.9583H120.954L119.8 53.5736Z" fill="white"/>
<path d="M120.955 53.5736V53.9583H122.109L120.955 53.5736Z" fill="white"/>
<path d="M133.264 53.5736V53.9583H134.418L133.264 53.5736Z" fill="white"/>
<path d="M134.418 53.5736V53.9583H135.957L134.418 53.5736Z" fill="white"/>
<path d="M87.8691 55.4971V56.6512H88.2538L87.8691 55.4971Z" fill="white"/>
<path d="M198.664 55.4971V55.8818L199.818 56.2665L198.664 55.4971Z" fill="white"/>
<path d="M198.279 55.8818V57.4206L199.818 57.0359V56.2665L198.279 55.8818Z" fill="white"/>
<path d="M87.8691 56.6512V59.3441H88.2538L87.8691 56.6512Z" fill="white"/>
<path d="M87.8691 59.3441V60.4982H88.2538L87.8691 59.3441Z" fill="white"/>
<path d="M87.4863 61.6523V62.4217H88.2557L87.4863 61.6523Z" fill="white"/>
<path d="M122.492 62.037V62.4217H123.646L122.492 62.037Z" fill="white"/>
<path d="M68.6348 100.122L70.943 100.507C76.4196 91.133 82.6428 82.5488 91.7168 76.2809C119.859 56.8405 157.729 62.4867 178.88 89.7354C186.296 99.2894 189.916 109.947 192.123 121.665H194.432C191.544 98.9393 177.549 78.5014 156.731 68.4938C130.425 55.8483 97.5854 62.5059 78.5327 84.7343C74.6849 89.2237 70.6752 94.5149 68.6348 100.122Z" fill="white"/>
<path d="M132.881 62.037V62.4217H134.035L132.881 62.037Z" fill="white"/>
<path d="M119.031 62.4217V62.8064H120.185L119.031 62.4217Z" fill="white"/>
<path d="M123.261 64.3452V64.7299H125.185L123.261 64.3452Z" fill="white"/>
<path d="M125.186 64.3452V64.7299H130.956L125.186 64.3452Z" fill="white"/>
<path d="M130.957 64.3452V64.7299H132.881L130.957 64.3452Z" fill="white"/>
<path d="M34.3965 76.6556L34.7812 78.5791L36.32 77.0403L34.3965 76.6556Z" fill="white"/>
<path d="M62.4805 81.6567V82.0414H65.5581L62.4805 81.6567Z" fill="white"/>
<path d="M126.34 83.5802V83.9649H130.956L126.34 83.5802Z" fill="white"/>
<path d="M122.877 83.9648V84.3495H124.031L122.877 83.9648Z" fill="white"/>
<path d="M101.719 93.1976V93.5823L139.035 94.736L154.807 93.5823C152.104 90.0796 146.614 87.6822 142.497 86.2742C128.033 81.3281 114.042 84.8158 101.719 93.1976Z" fill="white"/>
<path d="M40.5527 90.1201V90.5048H42.0915L40.5527 90.1201Z" fill="white"/>
<path d="M39.3979 90.7098C30.6229 92.8422 33.9951 107.016 42.8602 104.919C52.0706 102.739 48.858 88.4112 39.3979 90.7098Z" fill="white"/>
<path d="M171.735 92.2486C164.463 94.0048 167.627 104.877 174.813 102.985C181.598 101.199 178.61 90.5886 171.735 92.2486Z" fill="white"/>
<path d="M103.643 93.5824V93.9671H104.797L103.643 93.5824ZM150.961 93.5824V93.9671H152.115L150.961 93.5824Z" fill="white"/>
<path d="M106.721 93.967V94.3517H107.875L106.721 93.967Z" fill="white"/>
<path d="M147.114 93.967V94.3517H148.268L147.114 93.967Z" fill="white"/>
<path d="M148.268 93.967V94.3517H149.422L148.268 93.967Z" fill="white"/>
<path d="M109.799 94.3517V94.7364H110.953L109.799 94.3517Z" fill="white"/>
<path d="M110.951 94.3517V94.7364H112.49L110.951 94.3517Z" fill="white"/>
<path d="M112.49 94.3517V94.7364H114.414L112.49 94.3517ZM141.727 94.3517V94.7364H143.266L141.727 94.3517Z" fill="white"/>
<path d="M143.268 94.3517V94.7364H144.806L143.268 94.3517Z" fill="white"/>
<path d="M91.7168 104.739C96.6233 105.372 101.41 107.125 106.335 107.555C109.162 107.802 111.977 106.952 114.799 107.062C131.88 107.728 147.179 108.177 163.656 102.815C162.885 100.07 158.933 95.3435 155.962 94.8588C152.923 94.3629 149.025 95.5324 145.959 95.8252C139.018 96.4888 131.781 96.9504 124.801 96.645C119.709 96.4218 114.479 96.3784 109.413 95.7805C106.779 95.4701 102.757 94.3291 100.18 95.0338C96.7794 95.964 93.1483 101.726 91.7168 104.739Z" fill="white"/>
<path d="M100.949 94.7365V95.1212H102.103L100.949 94.7365Z" fill="white"/>
<path d="M116.339 94.7365V95.1212H118.262L116.339 94.7365Z" fill="white"/>
<path d="M118.262 94.7365V95.1212H121.339L118.262 94.7365Z" fill="white"/>
<path d="M121.34 94.7365V95.1212H135.958C132.098 93.5012 125.537 94.7365 121.34 94.7365Z" fill="white"/>
<path d="M135.957 94.7365V95.1212H137.881L135.957 94.7365Z" fill="white"/>
<path d="M137.881 94.7365V95.1212H139.804L137.881 94.7365Z" fill="white"/>
<path d="M105.566 95.1212V95.5059H106.721L105.566 95.1212Z" fill="white"/>
<path d="M108.645 95.5059V95.8906H110.568L108.645 95.5059Z" fill="white"/>
<path d="M143.652 95.5059V95.8906H144.806L143.652 95.5059Z" fill="white"/>
<path d="M144.805 95.5059V95.8906H145.959L144.805 95.5059Z" fill="white"/>
<path d="M145.959 95.5059V95.8906H147.113L145.959 95.5059Z" fill="white"/>
<path d="M113.645 95.8906V96.2753H115.953L113.645 95.8906Z" fill="white"/>
<path d="M115.953 95.8906V96.2753H117.107L115.953 95.8906Z" fill="white"/>
<path d="M117.107 95.8906V96.2753H119.031L117.107 95.8906ZM137.112 95.8906V96.2753H139.035L137.112 95.8906Z" fill="white"/>
<path d="M139.035 95.8906V96.2753H140.189L139.035 95.8906Z" fill="white"/>
<path d="M140.189 95.8906V96.2753H142.498L140.189 95.8906Z" fill="white"/>
<path d="M122.877 96.2753V96.66H134.418L122.877 96.2753Z" fill="white"/>
<path d="M178.66 96.66V98.1988H179.045L178.66 96.66Z" fill="white"/>
<path d="M167.119 97.0447V98.1988H167.504L167.119 97.0447Z" fill="white"/>
<path d="M53.2481 134.745C53.2481 122.194 54.4645 111.158 59.0186 99.3528C55.4205 98.6046 54.8446 103.583 54.0717 106.277C52.0821 113.217 50.9399 120.215 50.9399 127.436C50.9399 130.183 49.9881 133.866 53.2481 134.745Z" fill="white"/>
<path d="M67.4809 102.046C64.164 114.173 61.2507 124.283 62.8645 137.053L65.1727 137.438C63.545 124.56 66.4464 114.652 69.7891 102.43L67.4809 102.046Z" fill="white"/>
<path d="M172.119 103.2V103.585H174.043L172.119 103.2Z" fill="white"/>
<path d="M164.041 103.585V103.969L165.195 104.354L164.041 103.585Z" fill="white"/>
<path d="M112.105 108.586V108.97C124.681 109.964 137.311 113.044 149.806 114.845C157.01 115.883 163.006 117.576 169.81 114.356C169.221 111.867 167.218 104.974 164.389 104.282C162.82 103.898 160.506 105.396 159.039 105.891C155.448 107.103 151.643 107.996 147.883 108.476C135.909 110.004 124.095 108.586 112.105 108.586Z" fill="white"/>
<path d="M111.721 107.047V107.432H116.722L111.721 107.047ZM145.19 107.047V107.432H146.344L145.19 107.047Z" fill="white"/>
<path d="M120.185 107.432V107.816H121.724L120.185 107.432Z" fill="white"/>
<path d="M121.723 107.432V107.816H123.646L121.723 107.432Z" fill="white"/>
<path d="M123.646 107.432V107.816H126.339L123.646 107.432ZM140.189 107.432V107.816H142.112L140.189 107.432Z" fill="white"/>
<path d="M142.113 107.432V107.816H143.267L142.113 107.432Z" fill="white"/>
<path d="M131.341 107.816V108.201H136.726L131.341 107.816Z" fill="white"/>
<path d="M86.7168 114.741C108.267 121.753 130.552 123.689 152.885 119.357C148.535 117.481 142.214 117.64 137.497 116.944C127.716 115.504 117.954 113.833 108.26 111.894C104.027 111.048 99.7927 110.23 95.5649 109.354C93.9761 109.025 91.8437 108.038 90.2195 108.358C88.0571 108.784 87.2965 112.962 86.7168 114.741Z" fill="white"/>
<path d="M110.568 108.201V108.586L111.722 108.97L110.568 108.201Z" fill="white"/>
<path d="M111.721 108.201V108.586H115.183L111.721 108.201Z" fill="white"/>
<path d="M147.498 108.201V108.586H148.652L147.498 108.201Z" fill="white"/>
<path d="M117.491 108.586V108.97H122.108L117.491 108.586Z" fill="white"/>
<path d="M122.109 108.586V108.97H124.418L122.109 108.586Z" fill="white"/>
<path d="M124.416 108.586V108.97H125.955L124.416 108.586Z" fill="white"/>
<path d="M143.652 108.586V108.97H145.191L143.652 108.586Z" fill="white"/>
<path d="M129.033 108.97V109.355H132.11L129.033 108.97Z" fill="white"/>
<path d="M132.111 108.97V109.355H138.267L132.111 108.97Z" fill="white"/>
<path d="M138.266 108.97V109.355H140.189L138.266 108.97Z" fill="white"/>
<path d="M9.00586 110.124L10.5447 111.663V110.124H9.00586Z" fill="white"/>
<path d="M170.195 115.51L166.732 117.049V117.434L170.964 117.818L170.195 115.51Z" fill="white"/>
<path d="M171.734 132.437C171.734 130.19 172.847 123.615 171.064 122.046C169.914 121.034 167.405 121.206 165.964 121C160.759 120.257 156.51 120.177 151.345 121.204C138.296 123.797 124.499 124.084 111.336 122.271C105.187 121.424 99.1973 120.1 93.2553 118.311C91.7415 117.855 88.0245 115.794 86.5476 116.711C85.215 117.538 85.2808 120.682 85.1169 122.05C84.5849 126.494 83.5558 136.734 87.0397 140.284C88.5892 141.862 93.8242 141.402 95.9482 141.604C121.547 144.041 146.976 138.113 171.734 132.437Z" fill="white"/>
<path d="M53.6309 117.818V118.973H54.0156L53.6309 117.818Z" fill="white"/>
<path d="M157.117 119.742V120.127H158.656L157.117 119.742Z" fill="white"/>
<path d="M205.204 120.127V121.281H205.589L205.204 120.127ZM50.9395 120.511V121.665H51.3242L50.9395 120.511Z" fill="white"/>
<path d="M110.568 120.511V120.896H111.722L110.568 120.511ZM144.422 120.511V120.896H145.576L144.422 120.511Z" fill="white"/>
<path d="M53.248 120.896V122.435H53.6327L53.248 120.896Z" fill="white"/>
<path d="M114.029 120.896V121.281H115.183L114.029 120.896ZM140.958 120.896V121.281H142.112L140.958 120.896Z" fill="white"/>
<path d="M202.895 120.896V122.05H203.279L202.895 120.896Z" fill="white"/>
<path d="M117.107 121.281V121.665H118.646L117.107 121.281Z" fill="white"/>
<path d="M118.646 121.281V121.665H120.185L118.646 121.281ZM136.343 121.281V121.665H138.266L136.343 121.281Z" fill="white"/>
<path d="M138.266 121.281V121.665H139.42L138.266 121.281Z" fill="white"/>
<path d="M122.109 121.665V122.05H124.417L122.109 121.665Z" fill="white"/>
<path d="M124.416 121.665V122.05H132.879L124.416 121.665Z" fill="white"/>
<path d="M132.881 121.665V122.05H134.42L132.881 121.665Z" fill="white"/>
<path d="M84.793 122.05V123.204H85.1777L84.793 122.05Z" fill="white"/>
<path d="M202.895 122.05V123.204H203.279L202.895 122.05Z" fill="white"/>
<path d="M235.98 122.05V122.435H237.519L235.98 122.05Z" fill="white"/>
<path d="M23.2402 122.82L27.8566 125.512C26.8445 123.579 25.4965 122.276 23.2402 122.82Z" fill="white"/>
<path d="M53.248 122.435V123.589H53.6327L53.248 122.435Z" fill="white"/>
<path d="M115.184 122.435V122.82H116.338L115.184 122.435Z" fill="white"/>
<path d="M140.574 122.435V122.82H141.728L140.574 122.435Z" fill="white"/>
<path d="M235.612 122.722C231.989 124.144 234.082 130.181 237.886 128.688C241.53 127.257 239.46 121.211 235.612 122.722Z" fill="white"/>
<path d="M62.0954 122.82V125.128H62.4801L62.0954 122.82ZM118.646 122.82V123.204H120.185L118.646 122.82Z" fill="white"/>
<path d="M120.186 122.82V123.204H122.494L120.186 122.82Z" fill="white"/>
<path d="M122.492 122.82V123.204H123.646L122.492 122.82ZM132.11 122.82V123.204H134.033L132.11 122.82Z" fill="white"/>
<path d="M134.033 122.82V123.204H136.341L134.033 122.82Z" fill="white"/>
<path d="M136.342 122.82V123.204H137.496L136.342 122.82Z" fill="white"/>
<path d="M64.4031 123.204V125.512H64.7878L64.4031 123.204ZM129.033 123.204V123.589H131.726L129.033 123.204Z" fill="white"/>
<path d="M203.665 123.204V123.589H205.204L203.665 123.204Z" fill="white"/>
<path d="M50.5545 123.589V125.128H50.9392L50.5545 123.589ZM53.2474 123.589V124.743H53.6321L53.2474 123.589Z" fill="white"/>
<path d="M20.1621 123.974V124.358C22.3134 125.633 24.4765 128.065 27.0867 127.436V127.051L20.1621 123.974Z" fill="white"/>
<path d="M84.4082 124.743V125.897H84.7929L84.4082 124.743Z" fill="white"/>
<path d="M171.734 124.743V132.052H172.119L171.734 124.743Z" fill="white"/>
<path d="M192.124 124.743C194.503 134.733 189.556 147.992 184.928 156.673C167.289 189.765 123.683 202.616 92.4872 180.36C82.6216 173.322 74.6444 163.927 69.736 152.826C68.2907 149.557 67.0862 140.039 63.25 139.746C64.8615 148.055 67.8141 156.117 72.4839 163.213C77.2735 170.49 83.0782 176.81 90.179 181.899C117.988 201.828 155.742 195.871 178.209 170.907C186.519 161.675 192.28 149.373 193.939 137.053C194.339 134.088 196.248 125.064 192.124 124.743Z" fill="white"/>
<path d="M194.047 124.743L194.432 130.898H194.816L194.047 124.743Z" fill="white"/>
<path d="M239.826 124.743V126.282H240.211L239.826 124.743Z" fill="white"/>
<path d="M50.5547 125.128V132.052H50.9394L50.5547 125.128Z" fill="white"/>
<path d="M192.123 125.128V130.898H192.508L192.123 125.128Z" fill="white"/>
<path d="M64.4043 125.512V130.129H64.789L64.4043 125.512Z" fill="white"/>
<path d="M84.4082 125.897V129.359H84.7929L84.4082 125.897Z" fill="white"/>
<path d="M203.664 125.897V126.282H205.203L203.664 125.897Z" fill="white"/>
<path d="M203.281 126.282C203.281 142.804 198.265 163.57 185.713 175.401C183.12 177.845 177.899 177.217 174.813 179.837C171.177 182.923 170.637 188.793 167.112 191.256C141.63 209.054 106.279 205.122 82.4849 186.723C70.9543 177.807 62.5401 165.602 57.4056 152.057C56.0276 148.422 55.2778 136.931 51.3242 136.284C51.6951 144.917 55.1008 154.029 58.9232 161.674C78.7714 201.371 130.718 218.245 168.658 193.22C168.897 196.221 169.791 199.193 171.521 201.683C181.861 216.566 206.181 204.096 199.639 187.064C198.672 184.547 197.142 182.397 195.2 180.541C193.146 178.578 190.644 177.33 187.893 176.678C199.87 162.836 205.589 144.36 205.589 126.282H203.281Z" fill="white"/>
<path d="M205.588 126.282V130.129H205.973L205.588 126.282Z" fill="white"/>
<path d="M84.4082 129.359V130.514H84.7929L84.4082 129.359ZM202.896 129.744V131.283H203.28L202.896 129.744Z" fill="white"/>
<path d="M64.4039 130.129V132.052H64.7886L64.4039 130.129ZM62.0957 130.514V132.822H62.4804L62.0957 130.514Z" fill="white"/>
<path d="M194.432 130.898V132.437H194.816L194.432 130.898ZM202.895 131.283V132.822H203.28L202.895 131.283Z" fill="white"/>
<path d="M53.248 131.668V132.822H53.6327L53.248 131.668Z" fill="white"/>
<path d="M50.5547 132.052V133.591H50.9394L50.5547 132.052Z" fill="white"/>
<path d="M53.248 132.822V133.976H53.6327L53.248 132.822ZM62.0961 132.822V133.976H62.4808L62.0961 132.822Z" fill="white"/>
<path d="M202.895 132.822V134.361H203.279L202.895 132.822ZM205.203 132.822V134.745H205.587L205.203 132.822Z" fill="white"/>
<path d="M194.047 134.361V135.515H194.432L194.047 134.361Z" fill="white"/>
<path d="M64.7891 135.13V136.284H65.1738L64.7891 135.13Z" fill="white"/>
<path d="M62.4805 135.515V136.669H62.8652L62.4805 135.515Z" fill="white"/>
<path d="M88.2539 143.978C89.4192 150.536 95.3158 157.109 100.18 161.289C120.399 178.669 154.508 173.213 166.827 148.979C168.85 144.999 170.767 140.417 170.964 135.899C158.479 137.743 146.313 141.908 133.648 143.484C118.259 145.399 103.619 144.295 88.2539 143.978Z" fill="white"/>
<path d="M202.511 136.669V137.823H202.895L202.511 136.669Z" fill="white"/>
<path d="M128.649 140.516V140.9H129.803L128.649 140.516Z" fill="white"/>
<path d="M87.8691 140.9V141.285H89.0232L87.8691 140.9Z" fill="white"/>
<path d="M89.0234 140.9V141.285H90.5622L89.0234 140.9ZM124.801 140.9V141.285H125.955L124.801 140.9Z" fill="white"/>
<path d="M92.4863 141.285V141.67H93.6404L92.4863 141.285Z" fill="white"/>
<path d="M93.6406 141.285V141.67H95.1794L93.6406 141.285ZM120.185 141.285V141.67H121.724L120.185 141.285Z" fill="white"/>
<path d="M121.723 141.285V141.67H122.877L121.723 141.285Z" fill="white"/>
<path d="M97.1035 141.67V142.054H98.6423L97.1035 141.67Z" fill="white"/>
<path d="M98.6406 141.67V142.054H100.564L98.6406 141.67Z" fill="white"/>
<path d="M100.564 141.67V142.054H105.566L100.564 141.67ZM111.336 141.67V142.054H115.183L111.336 141.67Z" fill="white"/>
<path d="M115.184 141.67V142.054H117.492L115.184 141.67Z" fill="white"/>
<path d="M117.492 141.67V142.054H119.031L117.492 141.67Z" fill="white"/>
<path d="M133.264 143.209V143.593H134.418L133.264 143.209Z" fill="white"/>
<path d="M129.803 143.593V143.978H130.957L129.803 143.593Z" fill="white"/>
<path d="M90.5638 143.978V144.363H91.7179L90.5638 143.978Z" fill="white"/>
<path d="M124.801 143.978V144.363H125.955L124.801 143.978Z" fill="white"/>
<path d="M125.955 143.978V144.363H127.494L125.955 143.978Z" fill="white"/>
<path d="M95.5645 144.363V144.747H97.1033L95.5645 144.363Z" fill="white"/>
<path d="M97.1035 144.363V144.747H98.2576L97.1035 144.363Z" fill="white"/>
<path d="M98.2578 144.363V144.747H99.4119L98.2578 144.363ZM118.262 144.363V144.747H119.416L118.262 144.363Z" fill="white"/>
<path d="M119.416 144.363V144.747H120.955L119.416 144.363Z" fill="white"/>
<path d="M120.955 144.363V144.747H122.494L120.955 144.363Z" fill="white"/>
<path d="M102.104 144.747V145.132H115.569L102.104 144.747Z" fill="white"/>
<path d="M223.401 150.201C222.116 150.832 222.995 152.727 224.322 152.187C225.637 151.652 224.658 149.583 223.401 150.201Z" fill="white"/>
<path d="M223.285 152.441V152.826H224.439L223.285 152.441Z" fill="white"/>
<path d="M85.9473 154.997C80.5073 155.441 80.952 163.764 86.332 163.489C91.8359 163.207 91.6055 154.535 85.9473 154.997Z" fill="white"/>
<path d="M90.5625 158.597V159.751H90.9472L90.5625 158.597Z" fill="white"/>
<path d="M124.416 171.292V171.676H125.955L124.416 171.292ZM130.956 171.292V171.676H132.495L130.956 171.292Z" fill="white"/>
<path d="M210.59 177.447L211.744 179.37L212.129 177.447H210.59Z" fill="white"/>
<path d="M55.1699 184.372V184.756H56.324L55.1699 184.372Z" fill="white"/>
<path d="M54.7852 184.756C58.3329 185.032 55.308 187.889 54.7852 184.756Z" fill="white"/>
<path d="M55.1699 186.68V187.064H56.324L55.1699 186.68Z" fill="white"/>
<path d="M122.109 191.296V191.681H123.648L122.109 191.296Z" fill="white"/>
<path d="M124.416 191.296V191.681H125.955L124.416 191.296Z" fill="white"/>
<path d="M131.727 191.296V191.681H132.881L131.727 191.296Z" fill="white"/>
<path d="M132.881 191.296V191.681H134.035L132.881 191.296Z" fill="white"/>
<path d="M200.588 191.681V193.22H200.973L200.588 191.681Z" fill="white"/>
<path d="M121.723 193.604V193.989H122.877L121.723 193.604ZM133.264 193.604V193.989H134.418L133.264 193.604Z" fill="white"/>
<path d="M124.801 193.989V194.374H131.341L124.801 193.989Z" fill="white"/>
<path d="M70.5582 197.451C72.8748 196.135 69.9169 194.71 70.5582 197.451Z" fill="white"/>
<path d="M37.8594 202.068V203.607H39.0135V202.068H37.8594Z" fill="white"/>
<path d="M123.263 202.452V202.837H125.571L123.263 202.452Z" fill="white"/>
<path d="M125.57 202.452V202.837H130.956L125.57 202.452Z" fill="white"/>
<path d="M130.957 202.452V202.837H132.881L130.957 202.452Z" fill="white"/>
<path d="M139.034 203.991V204.376H140.188L139.034 203.991Z" fill="white"/>
<path d="M118.646 204.376V204.761H119.801L118.646 204.376ZM136.343 204.376V204.761H137.497L136.343 204.376Z" fill="white"/>
<path d="M121.34 204.761V205.145H122.494L121.34 204.761Z" fill="white"/>
<path d="M122.492 204.761V205.145H125.954L122.492 204.761ZM130.956 204.761V205.145H133.648L130.956 204.761Z" fill="white"/>
<path d="M133.648 204.761V205.145H134.803L133.648 204.761Z" fill="white"/>
<path d="M184.045 208.608V208.992H185.199L184.045 208.608Z" fill="white"/>
<path d="M145.959 210.531V212.455L147.113 211.685V211.301L145.959 210.531Z" fill="white"/>
<path d="M193.662 213.993V215.917L194.816 215.148V214.763L193.662 213.993Z" fill="white"/>
</svg>
