<svg width="3000" height="3000" viewBox="0 0 3000 3000" fill="none" xmlns="http://www.w3.org/2000/svg">
<rect width="3000" height="3000" rx="1500" fill="url(#paint0_linear_187_30969)"/>
<path d="M1791.61 131.913L1787.11 149.946H1805.14L1800.63 131.913H1791.61Z" fill="white"/>
<path d="M1043.25 253.635C1040.79 269.625 1045.29 274.133 1061.28 271.667L1043.25 253.635Z" fill="white"/>
<path d="M1244.27 272.042C1232.12 280.553 1243.82 301.737 1256.99 292.914C1269.27 284.687 1257.22 262.957 1244.27 272.042Z" fill="white"/>
<path d="M317.431 312.241L335.464 316.75C338.57 296.607 323.883 292.834 317.431 312.241Z" fill="white"/>
<path d="M339.974 298.717V312.241H344.482L339.974 298.717Z" fill="white"/>
<path d="M723.168 384.373V388.881H736.692L723.168 384.373Z" fill="white"/>
<path d="M736.696 384.373V388.881H750.22L736.696 384.373Z" fill="white"/>
<path d="M750.218 384.373V388.881H763.742L750.218 384.373Z" fill="white"/>
<path d="M781.777 956.914C738.809 1007.32 692.05 1077.63 673.58 1141.75C718.27 1151.16 762.531 1031.14 786.97 997.488C826.588 942.939 885.411 935.266 935.037 892.442C973.479 859.271 986.499 813.86 1017.96 777.005C1040.8 750.258 1080.22 733.628 1110.88 717.479C1641.75 437.871 2356.21 838.678 2382.19 1443.8H2409.24C2396.3 1142.51 2196.38 832.393 1922.35 704.455V699.947C1945.75 688.811 1966.09 673.118 1979.32 650.356C1990.01 631.963 1994.31 612.83 1994.46 591.75C1994.61 571.499 1992.54 551.636 1983.65 533.143C1917.12 394.8 1709.99 505.657 1778.09 641.34C1711.98 626.184 1647.62 607.997 1579.73 601.533C1380.67 582.576 1198.49 639.284 1025.22 731.504C1099.84 418.062 629.012 252.981 490.948 546.668C474.006 582.706 462.673 623.934 461.762 663.881C460.725 709.004 472.05 754.383 492.165 794.619C515.022 840.332 549.879 881.528 592.432 910.209C650.218 949.165 714.136 956.914 781.777 956.914Z" fill="white"/>
<path d="M1731.4 461.314C1721.52 468.631 1734.83 480.758 1743.63 474.235C1753.5 466.918 1740.2 454.791 1731.4 461.314Z" fill="white"/>
<path d="M1863.75 465.52V470.028H1895.3L1863.75 465.52Z" fill="white"/>
<path d="M1393.1 519.988C1381.96 528.058 1394.52 545.374 1405.7 537.282C1416.84 529.212 1404.28 511.896 1393.1 519.988Z" fill="white"/>
<path d="M1690.82 529.005C1681.28 536.502 1693.77 551.419 1703.06 543.368C1712.44 535.24 1700.24 521.602 1690.82 529.005Z" fill="white"/>
<path d="M1994.48 569.209V582.733H1998.99L1994.48 569.209Z" fill="white"/>
<path d="M1760.05 578.225V596.258H1764.56L1760.05 578.225Z" fill="white"/>
<path d="M1994.48 582.733V596.258H1998.99L1994.48 582.733Z" fill="white"/>
<path d="M1435.47 596.258V600.766H1458.01L1435.47 596.258Z" fill="white"/>
<path d="M1458.01 596.258V600.766H1543.66L1458.01 596.258Z" fill="white"/>
<path d="M1543.66 596.258V600.766H1561.69L1543.66 596.258Z" fill="white"/>
<path d="M1561.69 596.258V600.766H1575.22L1561.69 596.258Z" fill="white"/>
<path d="M1399.4 600.766V605.274H1412.92L1399.4 600.766Z" fill="white"/>
<path d="M1458.01 623.307V627.815H1534.65L1458.01 623.307Z" fill="white"/>
<path d="M1403.91 627.815V632.324H1417.43L1403.91 627.815Z" fill="white"/>
<path d="M1417.43 627.815V632.324H1430.96L1417.43 627.815Z" fill="white"/>
<path d="M1561.69 627.815V632.324H1575.22L1561.69 627.815Z" fill="white"/>
<path d="M1575.22 627.815V632.324H1593.25L1575.22 627.815Z" fill="white"/>
<path d="M1029.73 650.356V663.881H1034.23L1029.73 650.356Z" fill="white"/>
<path d="M2328.09 650.356V654.865L2341.61 659.373L2328.09 650.356Z" fill="white"/>
<path d="M2323.58 654.865V672.897L2341.62 668.389V659.373L2323.58 654.865Z" fill="white"/>
<path d="M1029.73 663.881V695.438H1034.23L1029.73 663.881Z" fill="white"/>
<path d="M1029.73 695.438V708.963H1034.23L1029.73 695.438Z" fill="white"/>
<path d="M1025.22 722.488V731.504H1034.24L1025.22 722.488Z" fill="white"/>
<path d="M1435.47 726.996V731.504H1448.99L1435.47 726.996Z" fill="white"/>
<path d="M804.318 1173.31L831.367 1177.82C895.545 1067.96 968.475 967.369 1074.81 893.917C1404.6 666.099 1848.39 732.266 2096.26 1051.59C2183.16 1163.55 2225.58 1288.44 2251.45 1425.77H2278.5C2244.67 1159.45 2080.66 919.938 1836.7 802.662C1528.42 654.472 1143.58 732.491 920.309 992.98C875.218 1045.59 828.229 1107.6 804.318 1173.31Z" fill="white"/>
<path d="M1557.19 726.996V731.504H1570.71L1557.19 726.996Z" fill="white"/>
<path d="M1394.89 731.504V736.012H1408.42L1394.89 731.504Z" fill="white"/>
<path d="M1444.48 754.045V758.553H1467.02L1444.48 754.045Z" fill="white"/>
<path d="M1467.03 754.045V758.553H1534.65L1467.03 754.045Z" fill="white"/>
<path d="M1534.65 754.045V758.553H1557.19L1534.65 754.045Z" fill="white"/>
<path d="M403.084 898.308L407.592 920.849L425.625 902.816L403.084 898.308Z" fill="white"/>
<path d="M732.186 956.914V961.422H768.252L732.186 956.914Z" fill="white"/>
<path d="M1480.55 979.455V983.963H1534.65L1480.55 979.455Z" fill="white"/>
<path d="M1439.97 983.963V988.472H1453.5L1439.97 983.963Z" fill="white"/>
<path d="M1192.02 1092.16V1096.67L1629.32 1110.19L1814.15 1096.67C1782.48 1055.62 1718.14 1027.53 1669.89 1011.03C1500.39 953.064 1336.44 993.936 1192.02 1092.16Z" fill="white"/>
<path d="M475.218 1056.09V1060.6H493.251L475.218 1056.09Z" fill="white"/>
<path d="M461.696 1063.01C358.864 1087.99 398.383 1254.09 502.269 1229.52C610.205 1203.97 572.557 1036.07 461.696 1063.01Z" fill="white"/>
<path d="M2012.52 1081.04C1927.3 1101.62 1964.37 1229.02 2048.58 1206.86C2128.09 1185.93 2093.08 1061.59 2012.52 1081.04Z" fill="white"/>
<path d="M1214.56 1096.67V1101.18H1228.09L1214.56 1096.67ZM1769.07 1096.67V1101.18H1782.6L1769.07 1096.67Z" fill="white"/>
<path d="M1250.63 1101.18V1105.68H1264.15L1250.63 1101.18Z" fill="white"/>
<path d="M1723.99 1101.18V1105.68H1737.51L1723.99 1101.18Z" fill="white"/>
<path d="M1737.51 1101.18V1105.68H1751.04L1737.51 1101.18Z" fill="white"/>
<path d="M1286.69 1105.68V1110.19H1300.22L1286.69 1105.68Z" fill="white"/>
<path d="M1300.22 1105.68V1110.19H1318.25L1300.22 1105.68Z" fill="white"/>
<path d="M1318.25 1105.68V1110.19H1340.79L1318.25 1105.68ZM1660.88 1105.68V1110.19H1678.91L1660.88 1105.68Z" fill="white"/>
<path d="M1678.91 1105.68V1110.19H1696.94L1678.91 1105.68Z" fill="white"/>
<path d="M1074.81 1227.41C1132.31 1234.83 1188.4 1255.37 1246.12 1260.41C1279.25 1263.3 1312.24 1253.35 1345.3 1254.64C1545.47 1262.43 1724.75 1267.7 1917.84 1204.87C1908.82 1172.69 1862.49 1117.31 1827.68 1111.63C1792.07 1105.82 1746.39 1119.52 1710.46 1122.95C1629.11 1130.73 1544.31 1136.14 1462.51 1132.56C1402.85 1129.94 1341.55 1129.43 1282.18 1122.43C1251.32 1118.79 1204.18 1105.42 1173.99 1113.68C1134.14 1124.58 1091.58 1192.1 1074.81 1227.41Z" fill="white"/>
<path d="M1183.01 1110.19V1114.7H1196.53L1183.01 1110.19Z" fill="white"/>
<path d="M1363.34 1110.19V1114.7H1385.88L1363.34 1110.19Z" fill="white"/>
<path d="M1385.88 1110.19V1114.7H1421.94L1385.88 1110.19Z" fill="white"/>
<path d="M1421.94 1110.19V1114.7H1593.25C1548.01 1095.72 1471.13 1110.19 1421.94 1110.19Z" fill="white"/>
<path d="M1593.25 1110.19V1114.7H1615.79L1593.25 1110.19Z" fill="white"/>
<path d="M1615.79 1110.19V1114.7H1638.33L1615.79 1110.19Z" fill="white"/>
<path d="M1237.11 1114.7V1119.21H1250.63L1237.11 1114.7Z" fill="white"/>
<path d="M1273.17 1119.21V1123.72H1295.71L1273.17 1119.21Z" fill="white"/>
<path d="M1683.41 1119.21V1123.72H1696.94L1683.41 1119.21Z" fill="white"/>
<path d="M1696.94 1119.21V1123.72H1710.46L1696.94 1119.21Z" fill="white"/>
<path d="M1710.47 1119.21V1123.72H1723.99L1710.47 1119.21Z" fill="white"/>
<path d="M1331.78 1123.72V1128.23H1358.82L1331.78 1123.72Z" fill="white"/>
<path d="M1358.83 1123.72V1128.23H1372.35L1358.83 1123.72Z" fill="white"/>
<path d="M1372.35 1123.72V1128.23H1394.89L1372.35 1123.72ZM1606.77 1123.72V1128.23H1629.31L1606.77 1123.72Z" fill="white"/>
<path d="M1629.32 1123.72V1128.23H1642.84L1629.32 1123.72Z" fill="white"/>
<path d="M1642.84 1123.72V1128.23H1669.89L1642.84 1123.72Z" fill="white"/>
<path d="M1439.97 1128.23V1132.73H1575.22L1439.97 1128.23Z" fill="white"/>
<path d="M2093.66 1132.73V1150.77H2098.17L2093.66 1132.73Z" fill="white"/>
<path d="M1958.42 1137.24V1150.77H1962.93L1958.42 1137.24Z" fill="white"/>
<path d="M623.991 1579.05C623.991 1431.96 638.246 1302.63 691.614 1164.29C649.449 1155.52 642.7 1213.86 633.643 1245.44C610.327 1326.76 596.942 1408.77 596.942 1493.39C596.942 1525.58 585.789 1568.74 623.991 1579.05Z" fill="white"/>
<path d="M790.791 1195.85C751.921 1337.97 717.78 1456.45 736.692 1606.09L763.741 1610.6C744.667 1459.69 778.668 1343.58 817.84 1200.36L790.791 1195.85Z" fill="white"/>
<path d="M2017.02 1209.37V1213.88H2039.56L2017.02 1209.37Z" fill="white"/>
<path d="M1922.35 1213.88V1218.39L1935.88 1222.9L1922.35 1213.88Z" fill="white"/>
<path d="M1313.74 1272.49V1277C1461.11 1288.65 1609.12 1324.74 1755.55 1345.84C1839.96 1358 1910.24 1377.85 1989.97 1340.11C1983.06 1310.94 1959.59 1230.17 1926.44 1222.05C1908.05 1217.56 1880.93 1235.11 1863.74 1240.91C1821.67 1255.11 1777.07 1265.58 1733.01 1271.2C1592.69 1289.11 1454.24 1272.49 1313.74 1272.49Z" fill="white"/>
<path d="M1309.24 1254.46V1258.96H1367.84L1309.24 1254.46ZM1701.45 1254.46V1258.96H1714.97L1701.45 1254.46Z" fill="white"/>
<path d="M1408.42 1258.96V1263.47H1426.45L1408.42 1258.96Z" fill="white"/>
<path d="M1426.45 1258.96V1263.47H1448.99L1426.45 1258.96Z" fill="white"/>
<path d="M1448.99 1258.96V1263.47H1480.55L1448.99 1258.96ZM1642.84 1258.96V1263.47H1665.38L1642.84 1258.96Z" fill="white"/>
<path d="M1665.38 1258.96V1263.47H1678.91L1665.38 1258.96Z" fill="white"/>
<path d="M1539.15 1263.47V1267.98H1602.27L1539.15 1263.47Z" fill="white"/>
<path d="M1016.2 1344.62C1268.74 1426.79 1529.89 1449.48 1791.61 1398.72C1740.63 1376.73 1666.56 1378.59 1611.28 1370.44C1496.66 1353.56 1382.26 1333.98 1268.66 1311.26C1219.05 1301.34 1169.44 1291.75 1119.89 1281.49C1101.27 1277.63 1076.28 1266.07 1057.25 1269.82C1031.91 1274.81 1023 1323.77 1016.2 1344.62Z" fill="white"/>
<path d="M1295.71 1267.98V1272.49L1309.24 1277L1295.71 1267.98Z" fill="white"/>
<path d="M1309.23 1267.98V1272.49H1349.81L1309.23 1267.98Z" fill="white"/>
<path d="M1728.5 1267.98V1272.49H1742.02L1728.5 1267.98Z" fill="white"/>
<path d="M1376.86 1272.49V1277H1430.96L1376.86 1272.49Z" fill="white"/>
<path d="M1430.96 1272.49V1277H1458.01L1430.96 1272.49Z" fill="white"/>
<path d="M1458.01 1272.49V1277H1476.04L1458.01 1272.49Z" fill="white"/>
<path d="M1683.42 1272.49V1277H1701.45L1683.42 1272.49Z" fill="white"/>
<path d="M1512.1 1277V1281.5H1548.17L1512.1 1277Z" fill="white"/>
<path d="M1548.17 1277V1281.5H1620.3L1548.17 1277Z" fill="white"/>
<path d="M1620.3 1277V1281.5H1642.84L1620.3 1277Z" fill="white"/>
<path d="M105.544 1290.52L123.577 1308.55V1290.52H105.544Z" fill="white"/>
<path d="M1994.48 1353.64L1953.91 1371.67V1376.18L2003.5 1380.68L1994.48 1353.64Z" fill="white"/>
<path d="M2012.51 1552C2012.51 1525.66 2025.55 1448.61 2004.66 1430.22C1991.18 1418.36 1961.78 1420.38 1944.89 1417.97C1883.89 1409.26 1834.11 1408.32 1773.58 1420.36C1620.66 1450.75 1458.98 1454.11 1304.73 1432.87C1232.67 1422.94 1162.47 1407.43 1092.84 1386.46C1075.1 1381.11 1031.54 1356.96 1014.24 1367.71C998.619 1377.4 999.39 1414.24 997.469 1430.28C991.234 1482.35 979.175 1602.35 1020 1643.95C1038.16 1662.45 1099.51 1657.06 1124.4 1659.43C1424.38 1687.98 1722.38 1618.51 2012.51 1552Z" fill="white"/>
<path d="M628.496 1380.68V1394.21H633.004L628.496 1380.68Z" fill="white"/>
<path d="M1841.21 1403.23V1407.73H1859.24L1841.21 1403.23Z" fill="white"/>
<path d="M2404.73 1407.73V1421.26H2409.23L2404.73 1407.73ZM596.937 1412.24V1425.77H601.445L596.937 1412.24Z" fill="white"/>
<path d="M1295.71 1412.24V1416.75H1309.24L1295.71 1412.24ZM1692.43 1412.24V1416.75H1705.96L1692.43 1412.24Z" fill="white"/>
<path d="M623.99 1416.75V1434.78H628.498L623.99 1416.75Z" fill="white"/>
<path d="M1336.28 1416.75V1421.26H1349.81L1336.28 1416.75ZM1651.86 1416.75V1421.26H1665.38L1651.86 1416.75Z" fill="white"/>
<path d="M2377.68 1416.75V1430.28H2382.19L2377.68 1416.75Z" fill="white"/>
<path d="M1372.35 1421.26V1425.77H1390.38L1372.35 1421.26Z" fill="white"/>
<path d="M1390.38 1421.26V1425.77H1408.42L1390.38 1421.26ZM1597.76 1421.26V1425.77H1620.3L1597.76 1421.26Z" fill="white"/>
<path d="M1620.3 1421.26V1425.77H1633.82L1620.3 1421.26Z" fill="white"/>
<path d="M1430.96 1425.77V1430.27H1458.01L1430.96 1425.77Z" fill="white"/>
<path d="M1458.01 1425.77V1430.27H1557.19L1458.01 1425.77Z" fill="white"/>
<path d="M1557.19 1425.77V1430.27H1575.22L1557.19 1425.77Z" fill="white"/>
<path d="M993.661 1430.28V1443.8H998.169L993.661 1430.28Z" fill="white"/>
<path d="M2377.68 1430.28V1443.8H2382.19L2377.68 1430.28Z" fill="white"/>
<path d="M2765.38 1430.28V1434.78H2783.42L2765.38 1430.28Z" fill="white"/>
<path d="M272.35 1439.29L326.449 1470.85C314.587 1448.2 298.791 1432.93 272.35 1439.29Z" fill="white"/>
<path d="M623.99 1434.78V1448.31H628.498L623.99 1434.78Z" fill="white"/>
<path d="M1349.81 1434.78V1439.29H1363.33L1349.81 1434.78Z" fill="white"/>
<path d="M1647.35 1434.78V1439.29H1660.88L1647.35 1434.78Z" fill="white"/>
<path d="M2761.07 1438.15C2718.61 1454.82 2743.15 1525.56 2787.72 1508.06C2830.43 1491.29 2806.17 1420.44 2761.07 1438.15Z" fill="white"/>
<path d="M727.68 1439.29V1466.34H732.189L727.68 1439.29ZM1390.39 1439.29V1443.8H1408.42L1390.39 1439.29Z" fill="white"/>
<path d="M1408.42 1439.29V1443.8H1435.47L1408.42 1439.29Z" fill="white"/>
<path d="M1435.47 1439.29V1443.8H1448.99L1435.47 1439.29ZM1548.17 1439.29V1443.8H1570.71L1548.17 1439.29Z" fill="white"/>
<path d="M1570.71 1439.29V1443.8H1597.76L1570.71 1439.29Z" fill="white"/>
<path d="M1597.76 1439.29V1443.8H1611.28L1597.76 1439.29Z" fill="white"/>
<path d="M754.728 1443.8V1470.85H759.236L754.728 1443.8ZM1512.11 1443.8V1448.31H1543.66L1512.11 1443.8Z" fill="white"/>
<path d="M2386.7 1443.8V1448.31H2404.73L2386.7 1443.8Z" fill="white"/>
<path d="M592.434 1448.31V1466.34H596.942L592.434 1448.31ZM623.991 1448.31V1461.83H628.499L623.991 1448.31Z" fill="white"/>
<path d="M236.285 1452.82V1457.32C261.494 1472.26 286.844 1500.76 317.432 1493.39V1488.88L236.285 1452.82Z" fill="white"/>
<path d="M989.155 1461.83V1475.36H993.663L989.155 1461.83Z" fill="white"/>
<path d="M2012.52 1461.83V1547.49H2017.03L2012.52 1461.83Z" fill="white"/>
<path d="M2251.45 1461.83C2279.32 1578.9 2221.35 1734.28 2167.12 1836.01C1960.4 2223.81 1449.4 2374.4 1083.83 2113.6C968.212 2031.11 874.73 1921.02 817.21 1790.93C800.273 1752.62 786.158 1641.08 741.202 1637.65C760.087 1735.03 794.687 1829.5 849.412 1912.65C905.539 1997.93 973.564 2071.99 1056.78 2131.63C1382.66 2365.17 1825.09 2295.36 2088.38 2002.82C2185.76 1894.62 2253.27 1750.47 2272.72 1606.09C2277.4 1571.35 2299.77 1465.6 2251.45 1461.83Z" fill="white"/>
<path d="M2273.99 1461.83L2278.5 1533.96H2283.01L2273.99 1461.83Z" fill="white"/>
<path d="M2810.47 1461.83V1479.87H2814.98L2810.47 1461.83Z" fill="white"/>
<path d="M592.431 1466.34V1547.49H596.939L592.431 1466.34Z" fill="white"/>
<path d="M2251.45 1466.34V1533.96H2255.96L2251.45 1466.34Z" fill="white"/>
<path d="M754.727 1470.85V1524.95H759.235L754.727 1470.85Z" fill="white"/>
<path d="M989.155 1475.36V1515.93H993.663L989.155 1475.36Z" fill="white"/>
<path d="M2386.69 1475.36V1479.87H2404.73L2386.69 1475.36Z" fill="white"/>
<path d="M2382.19 1479.87C2382.19 1673.48 2323.41 1916.84 2176.32 2055.48C2145.93 2084.13 2084.75 2076.76 2048.58 2107.47C2005.98 2143.63 1999.65 2212.42 1958.33 2241.28C1659.72 2449.85 1245.45 2403.78 966.614 2188.16C831.489 2083.67 732.886 1940.65 672.715 1781.91C656.567 1739.32 647.78 1604.66 601.449 1597.08C605.795 1698.24 645.706 1805.03 690.5 1894.62C923.096 2359.82 1531.84 2557.56 1976.45 2264.29C1979.25 2299.46 1989.73 2334.3 2010.01 2363.47C2131.18 2537.88 2416.18 2391.75 2339.51 2192.16C2328.18 2162.66 2310.26 2137.46 2287.5 2115.72C2263.42 2092.71 2234.1 2078.08 2201.86 2070.44C2342.22 1908.23 2409.24 1691.72 2409.24 1479.87H2382.19Z" fill="white"/>
<path d="M2409.24 1479.87V1524.95H2413.74L2409.24 1479.87Z" fill="white"/>
<path d="M989.155 1515.93V1529.46H993.663L989.155 1515.93ZM2377.68 1520.44V1538.47H2382.19L2377.68 1520.44Z" fill="white"/>
<path d="M754.726 1524.95V1547.49H759.235L754.726 1524.95ZM727.677 1529.46V1556.5H732.185L727.677 1529.46Z" fill="white"/>
<path d="M2278.5 1533.96V1552H2283.01L2278.5 1533.96ZM2377.68 1538.47V1556.5H2382.19L2377.68 1538.47Z" fill="white"/>
<path d="M623.99 1542.98V1556.51H628.498L623.99 1542.98Z" fill="white"/>
<path d="M592.431 1547.49V1565.52H596.939L592.431 1547.49Z" fill="white"/>
<path d="M623.99 1556.5V1570.03H628.498L623.99 1556.5ZM727.678 1556.5V1570.03H732.187L727.678 1556.5Z" fill="white"/>
<path d="M2377.68 1556.5V1574.54H2382.19L2377.68 1556.5ZM2404.73 1556.5V1579.05H2409.24L2404.73 1556.5Z" fill="white"/>
<path d="M2273.99 1574.54V1588.06H2278.5L2273.99 1574.54Z" fill="white"/>
<path d="M759.236 1583.55V1597.08H763.745L759.236 1583.55Z" fill="white"/>
<path d="M732.186 1588.06V1601.59H736.695L732.186 1588.06Z" fill="white"/>
<path d="M1034.24 1687.24C1047.89 1764.1 1116.99 1841.12 1173.99 1890.11C1410.94 2093.78 1810.66 2029.84 1955.01 1745.85C1978.72 1699.21 2001.19 1645.51 2003.5 1592.57C1857.18 1614.18 1714.61 1662.98 1566.2 1681.45C1385.85 1703.89 1214.29 1690.96 1034.24 1687.24Z" fill="white"/>
<path d="M2373.17 1601.59V1615.11H2377.68L2373.17 1601.59Z" fill="white"/>
<path d="M1507.6 1646.67V1651.18H1521.12L1507.6 1646.67Z" fill="white"/>
<path d="M1029.73 1651.18V1655.68H1043.25L1029.73 1651.18Z" fill="white"/>
<path d="M1043.25 1651.18V1655.68H1061.29L1043.25 1651.18ZM1462.52 1651.18V1655.68H1476.04L1462.52 1651.18Z" fill="white"/>
<path d="M1083.83 1655.69V1660.19H1097.35L1083.83 1655.69Z" fill="white"/>
<path d="M1097.35 1655.69V1660.19H1115.38L1097.35 1655.69ZM1408.41 1655.69V1660.19H1426.45L1408.41 1655.69Z" fill="white"/>
<path d="M1426.45 1655.69V1660.19H1439.97L1426.45 1655.69Z" fill="white"/>
<path d="M1137.92 1660.19V1664.7H1155.96L1137.92 1660.19Z" fill="white"/>
<path d="M1155.95 1660.19V1664.7H1178.5L1155.95 1660.19Z" fill="white"/>
<path d="M1178.49 1660.19V1664.7H1237.1L1178.49 1660.19ZM1304.72 1660.19V1664.7H1349.81L1304.72 1660.19Z" fill="white"/>
<path d="M1349.81 1660.19V1664.7H1376.86L1349.81 1660.19Z" fill="white"/>
<path d="M1376.86 1660.19V1664.7H1394.89L1376.86 1660.19Z" fill="white"/>
<path d="M1561.69 1678.23V1682.73H1575.22L1561.69 1678.23Z" fill="white"/>
<path d="M1521.12 1682.73V1687.24H1534.65L1521.12 1682.73Z" fill="white"/>
<path d="M1061.28 1687.24V1691.75H1074.81L1061.28 1687.24Z" fill="white"/>
<path d="M1462.51 1687.24V1691.75H1476.04L1462.51 1687.24Z" fill="white"/>
<path d="M1476.04 1687.24V1691.75H1494.07L1476.04 1687.24Z" fill="white"/>
<path d="M1119.89 1691.75V1696.26H1137.92L1119.89 1691.75Z" fill="white"/>
<path d="M1137.92 1691.75V1696.26H1151.45L1137.92 1691.75Z" fill="white"/>
<path d="M1151.45 1691.75V1696.26H1164.97L1151.45 1691.75ZM1385.87 1691.75V1696.26H1399.4L1385.87 1691.75Z" fill="white"/>
<path d="M1399.4 1691.75V1696.26H1417.43L1399.4 1691.75Z" fill="white"/>
<path d="M1417.43 1691.75V1696.26H1435.46L1417.43 1691.75Z" fill="white"/>
<path d="M1196.53 1696.26V1700.77H1354.32L1196.53 1696.26Z" fill="white"/>
<path d="M2617.98 1760.16C2602.92 1767.57 2613.22 1789.77 2628.77 1783.44C2644.18 1777.17 2632.7 1752.93 2617.98 1760.16Z" fill="white"/>
<path d="M2616.62 1786.42V1790.93H2630.14L2616.62 1786.42Z" fill="white"/>
<path d="M1007.19 1816.37C943.438 1821.57 948.65 1919.11 1011.7 1915.89C1076.2 1912.58 1073.5 1810.96 1007.19 1816.37Z" fill="white"/>
<path d="M1061.28 1858.55V1872.08H1065.79L1061.28 1858.55Z" fill="white"/>
<path d="M1458.01 2007.33V2011.83H1476.04L1458.01 2007.33ZM1534.65 2007.33V2011.83H1552.68L1534.65 2007.33Z" fill="white"/>
<path d="M2467.84 2079.46L2481.37 2102L2485.88 2079.46H2467.84Z" fill="white"/>
<path d="M646.53 2160.6V2165.11H660.055L646.53 2160.6Z" fill="white"/>
<path d="M642.021 2165.11C683.596 2168.35 648.148 2201.83 642.021 2165.11Z" fill="white"/>
<path d="M646.53 2187.65V2192.16H660.055L646.53 2187.65Z" fill="white"/>
<path d="M1430.96 2241.75V2246.26H1448.99L1430.96 2241.75Z" fill="white"/>
<path d="M1458.01 2241.75V2246.26H1476.04L1458.01 2241.75Z" fill="white"/>
<path d="M1543.66 2241.75V2246.26H1557.18L1543.66 2241.75Z" fill="white"/>
<path d="M1557.19 2241.75V2246.26H1570.71L1557.19 2241.75Z" fill="white"/>
<path d="M2350.63 2246.26V2264.29H2355.14L2350.63 2246.26Z" fill="white"/>
<path d="M1426.45 2268.8V2273.31H1439.97L1426.45 2268.8ZM1561.69 2268.8V2273.31H1575.22L1561.69 2268.8Z" fill="white"/>
<path d="M1462.51 2273.31V2277.82H1539.15L1462.51 2273.31Z" fill="white"/>
<path d="M826.86 2313.88C854.009 2298.46 819.345 2281.75 826.86 2313.88Z" fill="white"/>
<path d="M443.662 2367.98V2386.01H457.187V2367.98H443.662Z" fill="white"/>
<path d="M1444.48 2372.49V2377H1471.53L1444.48 2372.49Z" fill="white"/>
<path d="M1471.53 2372.49V2377H1534.65L1471.53 2372.49Z" fill="white"/>
<path d="M1534.65 2372.49V2377H1557.19L1534.65 2372.49Z" fill="white"/>
<path d="M1629.32 2390.52V2395.03H1642.84L1629.32 2390.52Z" fill="white"/>
<path d="M1390.38 2395.03V2399.54H1403.91L1390.38 2395.03ZM1597.76 2395.03V2399.54H1611.29L1597.76 2395.03Z" fill="white"/>
<path d="M1421.94 2399.54V2404.05H1435.47L1421.94 2399.54Z" fill="white"/>
<path d="M1435.47 2399.54V2404.05H1476.04L1435.47 2399.54ZM1534.65 2399.54V2404.05H1566.2L1534.65 2399.54Z" fill="white"/>
<path d="M1566.2 2399.54V2404.05H1579.72L1566.2 2399.54Z" fill="white"/>
<path d="M2156.78 2444.62V2449.13H2170.3L2156.78 2444.62Z" fill="white"/>
<path d="M1710.47 2467.16V2489.7L1723.99 2480.69V2476.18L1710.47 2467.16Z" fill="white"/>
<path d="M2269.48 2507.74V2530.28L2283.01 2521.26V2516.75L2269.48 2507.74Z" fill="white"/>
<defs>
<linearGradient id="paint0_linear_187_30969" x1="3000" y1="0" x2="0" y2="3000" gradientUnits="userSpaceOnUse">
<stop stop-color="#EC0C55"/>
<stop offset="1" stop-color="#F700B1"/>
</linearGradient>
</defs>
</svg>
